<svg xmlns="http://www.w3.org/2000/svg" x="0px" y="0px" width="50" height="50" viewBox="0 0 172 172"
          style=" fill:#000000;">
          <g fill="none" fill-rule="nonzero" stroke="none" stroke-width="1" stroke-linecap="butt"
            stroke-linejoin="miter" stroke-miterlimit="10" stroke-dasharray="" stroke-dashoffset="0" font-family="none"
            font-weight="none" font-size="none" text-anchor="none" style="mix-blend-mode: normal">
            <path d="M0,172v-172h172v172z" fill="none"></path>
            <g>
              <circle cx="50.5" cy="52.5" transform="scale(1.72,1.72)" r="31.5" fill="#fef6aa"></circle>
              <path
                d="M86.86,146.2c-30.8224,0 -55.9,-25.0776 -55.9,-55.9c0,-30.8224 25.0776,-55.9 55.9,-55.9c30.82412,0 55.9,25.0776 55.9,55.9c0,30.8224 -25.07588,55.9 -55.9,55.9zM86.86,37.84c-28.92696,0 -52.46,23.53304 -52.46,52.46c0,28.92696 23.53304,52.46 52.46,52.46c28.92524,0 52.46,-23.53304 52.46,-52.46c0,-28.92696 -23.53476,-52.46 -52.46,-52.46z"
                fill="#000000"></path>
              <path
                d="M47.60788,67.13504c-4.01448,6.79056 -6.32788,14.706 -6.32788,23.16496c0,25.17392 20.40608,45.58 45.58,45.58c8.62752,0 16.6926,-2.39768 23.57088,-6.5618c-7.30484,-44.10596 -40.25488,-57.93304 -62.823,-62.18316z"
                fill="#3a83c1"></path>
              <circle cx="50.5" cy="52.5" transform="scale(1.72,1.72)" r="26.5" fill="#3070b7"></circle>
              <path
                d="M86.86,137.6c-26.08208,0 -47.3,-21.21792 -47.3,-47.3c0,-26.08208 21.21792,-47.3 47.3,-47.3c26.08036,0 47.3,21.21792 47.3,47.3c0,26.08208 -21.21964,47.3 -47.3,47.3zM86.86,46.44c-24.18492,0 -43.86,19.67508 -43.86,43.86c0,24.18492 19.67508,43.86 43.86,43.86c24.18492,0 43.86,-19.67508 43.86,-43.86c0,-24.18492 -19.67508,-43.86 -43.86,-43.86z"
                fill="#000000"></path>
              <path d="M80.84,96.32c0,0 22.36,13.76 17.2,30.96h12.04c0,0 1.72,-20.64 -29.24,-30.96z" fill="#40a6dd">
              </path>
              <path
                d="M84.28,73.96c0,0 36.12,29.24 18.92,53.32c0,0 18.92,-22.36 5.16,-55.04c0,12.04 -1.72,18.92 -1.72,18.92c0,0 -3.44,-8.6 -22.36,-17.2z"
                fill="#31c4f3"></path>
              <path
                d="M70.52,56.76c0,0 29.24,-1.72 53.32,24.08c-15.48,-27.52 -41.28,-32.68 -56.76,-32.68c1.72,3.44 3.44,8.6 3.44,8.6z"
                fill="#31c4f3"></path>
              <path d="M75.68,123.84v-92.88h-37.84l10.32,13.76v84.28l-8.6,15.48h84.28l13.76,-20.64z" fill="#fef6aa">
              </path>
              <path
                d="M123.84,146.2h-84.28c-0.60888,0 -1.17304,-0.32336 -1.48264,-0.84796c-0.3096,-0.52632 -0.3182,-1.17476 -0.02064,-1.70796l8.38328,-15.08956v-83.26176l-9.976,-13.30076c-0.39216,-0.52116 -0.45408,-1.21776 -0.1634,-1.80084c0.29068,-0.58308 0.88752,-0.95116 1.5394,-0.95116h37.84c0.94944,0 1.72,0.77056 1.72,1.72v91.16h60.2c0.63468,0 1.21776,0.34916 1.51704,0.90816c0.29928,0.559 0.2666,1.2384 -0.086,1.76472l-13.76,20.64c-0.31992,0.47988 -0.85656,0.76712 -1.43104,0.76712zM42.484,142.76h80.4358l11.46724,-17.2h-58.70704c-0.94944,0 -1.72,-0.77056 -1.72,-1.72v-91.16h-32.68l8.256,11.008c0.2236,0.29756 0.344,0.66048 0.344,1.032v84.28c0,0.2924 -0.07396,0.57964 -0.21672,0.83592z"
                fill="#000000"></path>
              <path d="M68.8,129v-91.96496h-18.28016l2.80016,5.24772v88.43724l-1.72,6.88h67.08l5.20644,-8.6z"
                fill="#eba272"></path>
              <path
                d="M54.18,77.4c-0.47472,0 -0.86,-0.38528 -0.86,-0.86v-13.76c0,-0.47472 0.38528,-0.86 0.86,-0.86c0.47472,0 0.86,0.38528 0.86,0.86v13.76c0,0.47472 -0.38528,0.86 -0.86,0.86z"
                fill="#000000"></path>
              <path
                d="M79.98,130.72h-10.32c-0.47472,0 -0.86,-0.38528 -0.86,-0.86v-92.02h-16.59456l2.7262,4.88308c0.07052,0.12728 0.10836,0.27176 0.10836,0.41968v14.47724c0,0.47472 -0.38528,0.86 -0.86,0.86c-0.47472,0 -0.86,-0.38528 -0.86,-0.86v-14.25536l-3.33164,-5.96668c-0.14792,-0.2666 -0.14448,-0.59168 0.0086,-0.85484c0.15652,-0.26144 0.4386,-0.42312 0.74304,-0.42312h18.92c0.47472,0 0.86,0.38528 0.86,0.86v92.02h9.46c0.47472,0 0.86,0.38528 0.86,0.86c0,0.47472 -0.38528,0.86 -0.86,0.86z"
                fill="#000000"></path>
              <path
                d="M98.9,130.72h-13.76c-0.47472,0 -0.86,-0.38528 -0.86,-0.86c0,-0.47472 0.38528,-0.86 0.86,-0.86h13.76c0.47472,0 0.86,0.38528 0.86,0.86c0,0.47472 -0.38528,0.86 -0.86,0.86z"
                fill="#000000"></path>
              <path
                d="M118.42888,139.32h-67.68888c-0.29412,0 -0.56932,-0.15136 -0.72584,-0.39904c-0.15824,-0.2494 -0.17716,-0.56244 -0.04988,-0.82732l3.35572,-7.08984v-47.5838c0,-0.47472 0.38528,-0.86 0.86,-0.86c0.47472,0 0.86,0.38528 0.86,0.86v47.77644c0,0.12728 -0.02924,0.25284 -0.08256,0.36808l-2.85864,6.03548h65.85708l4.3774,-6.88h-14.83328c-0.47472,0 -0.86,-0.38528 -0.86,-0.86c0,-0.47472 0.38528,-0.86 0.86,-0.86h16.4002c0.31476,0 0.60372,0.172 0.75336,0.44548c0.15136,0.2752 0.13932,0.6106 -0.02924,0.87548l-5.47304,8.6c-0.1548,0.2494 -0.43,0.39904 -0.7224,0.39904z"
                fill="#000000"></path>
              <path
                d="M107.99364,121.8448c-0.14104,0 -0.2838,-0.0344 -0.41624,-0.10836c-0.41452,-0.23048 -0.56588,-0.75336 -0.3354,-1.1696c3.16136,-5.71384 4.7386,-12.19996 5.39908,-15.5574c0.08944,-0.46784 0.53836,-0.77228 1.00964,-0.6794c0.46612,0.09116 0.76884,0.54352 0.67768,1.00964c-0.67768,3.4572 -2.3048,10.14112 -5.57968,16.05964c-0.15824,0.28552 -0.45236,0.44548 -0.75508,0.44548z"
                fill="#000000"></path>
              <path
                d="M105.02836,66.951c-0.16856,0 -0.3354,-0.04816 -0.48332,-0.14964c-2.69696,-1.83524 -6.40184,-3.55524 -11.008,-5.1084c-0.45064,-0.15136 -0.69144,-0.63984 -0.53836,-1.08876c0.15136,-0.45064 0.63468,-0.69144 1.09048,-0.54008c4.7558,1.60304 8.59828,3.39184 11.42596,5.31652c0.39388,0.2666 0.49364,0.80152 0.22704,1.19368c-0.16856,0.24596 -0.4386,0.37668 -0.7138,0.37668z"
                fill="#000000"></path>
              <path
                d="M89.68768,60.46316c-0.0774,0 -0.15652,-0.01032 -0.23392,-0.03268c-3.268,-0.92364 -5.64676,-1.39664 -5.66912,-1.40008c-0.46612,-0.09288 -0.76884,-0.54524 -0.67596,-1.01136c0.09116,-0.46612 0.54868,-0.76712 1.00964,-0.67768c0.09976,0.02064 2.46304,0.4902 5.80328,1.43276c0.45752,0.129 0.72412,0.60544 0.59512,1.06124c-0.10836,0.38012 -0.45408,0.6278 -0.82904,0.6278z"
                fill="#000000"></path>
              <path
                d="M107.77176,122.06496c-0.42656,0 -0.79808,-0.31992 -0.8514,-0.75336c-1.2556,-10.16864 -12.11568,-17.04348 -13.35064,-17.7934c-0.40592,-0.24768 -0.53492,-0.77572 -0.28724,-1.18164c0.24768,-0.40592 0.77572,-0.5332 1.18164,-0.28724c1.3072,0.79464 12.80712,8.08228 14.16248,19.05244c0.05848,0.47128 -0.27692,0.90128 -0.7482,0.95976c-0.03612,0.00172 -0.07052,0.00344 -0.10664,0.00344z"
                fill="#000000"></path>
              <path
                d="M88.74856,100.81264c-0.12384,0 -0.2494,-0.0258 -0.36808,-0.08256c-3.94224,-1.86276 -6.88688,-2.71588 -6.91612,-2.72276c-0.4558,-0.13072 -0.72068,-0.60716 -0.58996,-1.06468c0.129,-0.4558 0.60372,-0.71896 1.06296,-0.58996c0.12556,0.03612 3.10116,0.89612 7.17928,2.82252c0.42828,0.20296 0.61232,0.71552 0.40936,1.14552c-0.1462,0.3096 -0.4558,0.49192 -0.77744,0.49192z"
                fill="#000000"></path>
              <path
                d="M106.51272,91.7362c-0.27176,0 -0.53492,-0.13072 -0.6966,-0.35604c-3.25768,-4.50984 -9.35336,-10.191 -12.62652,-12.26016c-0.40076,-0.25284 -0.52116,-0.78604 -0.2666,-1.1868c0.25456,-0.40248 0.78948,-0.51772 1.1868,-0.26832c3.05472,1.93156 8.4624,6.87312 11.97464,11.23676c0.60888,-2.8552 1.13176,-6.4672 1.13176,-11.52916c0,-0.47472 0.38528,-0.86 0.86,-0.86c0.47472,0 0.86,0.38528 0.86,0.86c0,6.35024 -0.80324,10.49372 -1.58928,13.7084c-0.07912,0.32508 -0.34056,0.57448 -0.6708,0.63984c-0.05504,0.01032 -0.10836,0.01548 -0.1634,0.01548z"
                fill="#000000"></path>
              <g fill="#000000">
                <path
                  d="M89.3884,76.73092c-0.14276,0 -0.28552,-0.0344 -0.41796,-0.10836c-2.97904,-1.65636 -5.24772,-2.71416 -5.27008,-2.72276c-0.43,-0.19952 -0.61748,-0.71208 -0.41796,-1.14208c0.19952,-0.43 0.70864,-0.6192 1.14208,-0.41796c0.0946,0.043 2.34436,1.09048 5.3836,2.78124c0.41452,0.23048 0.56416,0.75336 0.33196,1.1696c-0.15824,0.28036 -0.45064,0.44032 -0.75164,0.44032z">
                </path>
              </g>
            </g>
          </g>
        </svg>